
<svg xmlns="http://www.w3.org/2000/svg" style="display:none" aria-hidden="true">

  <symbol id="td-i-check" viewBox="0 0 24 24" fill="none" stroke="currentColor" stroke-width="2" stroke-linecap="round" stroke-linejoin="round"><path d="M5 12.5l4.5 4.5L20 7"></path></symbol>
  <symbol id="td-i-x" viewBox="0 0 24 24" fill="none" stroke="currentColor" stroke-width="2" stroke-linecap="round" stroke-linejoin="round"><path d="M6 6l12 12M18 6L6 18"></path></symbol>
  <symbol id="td-i-alert" viewBox="0 0 24 24" fill="none" stroke="currentColor" stroke-width="2" stroke-linecap="round" stroke-linejoin="round"><path d="M12 3l10 17H2L12 3z"></path><path d="M12 10v5"></path><circle cx="12" cy="18" r=".7" fill="currentColor"></circle></symbol>
  <symbol id="td-i-info" viewBox="0 0 24 24" fill="none" stroke="currentColor" stroke-width="2" stroke-linecap="round" stroke-linejoin="round"><circle cx="12" cy="12" r="9"></circle><path d="M12 11v6"></path><circle cx="12" cy="8" r=".8" fill="currentColor"></circle></symbol>
  <symbol id="td-i-clock" viewBox="0 0 24 24" fill="none" stroke="currentColor" stroke-width="2" stroke-linecap="round" stroke-linejoin="round"><circle cx="12" cy="12" r="9"></circle><path d="M12 7v5l3 2"></path></symbol>
  <symbol id="td-i-loader" viewBox="0 0 24 24" fill="none" stroke="currentColor" stroke-width="2" stroke-linecap="round" stroke-linejoin="round"><path d="M12 3v4M12 17v4M5 12H3M21 12h-2M6.3 6.3L4.9 4.9M19.1 19.1l-1.4-1.4M6.3 17.7l-1.4 1.4M19.1 4.9l-1.4 1.4"></path></symbol>
  <symbol id="td-i-lock" viewBox="0 0 24 24" fill="none" stroke="currentColor" stroke-width="2" stroke-linecap="round" stroke-linejoin="round"><rect x="4" y="11" width="16" height="10" rx="2"></rect><path d="M8 11V8a4 4 0 0 1 8 0v3"></path></symbol>

  <symbol id="td-i-play" viewBox="0 0 24 24" fill="currentColor"><path d="M7 5l13 7-13 7z"></path></symbol>
  <symbol id="td-i-pause" viewBox="0 0 24 24" fill="currentColor"><rect x="6" y="5" width="4" height="14" rx="1"></rect><rect x="14" y="5" width="4" height="14" rx="1"></rect></symbol>
  <symbol id="td-i-stop" viewBox="0 0 24 24" fill="currentColor"><rect x="5" y="5" width="14" height="14" rx="2"></rect></symbol>
  <symbol id="td-i-run" viewBox="0 0 24 24" fill="none" stroke="currentColor" stroke-width="2" stroke-linecap="round" stroke-linejoin="round"><circle cx="12" cy="12" r="9"></circle><path d="M10 8.5l6 3.5-6 3.5z" fill="currentColor"></path></symbol>
  <symbol id="td-i-plan" viewBox="0 0 24 24" fill="none" stroke="currentColor" stroke-width="2" stroke-linecap="round" stroke-linejoin="round"><path d="M5 4h11l3 3v13H5z"></path><path d="M9 11h7M9 15h5"></path></symbol>
  <symbol id="td-i-apply" viewBox="0 0 24 24" fill="none" stroke="currentColor" stroke-width="2" stroke-linecap="round" stroke-linejoin="round"><path d="M4 13l4 4L20 5"></path><path d="M4 19h16"></path></symbol>
  <symbol id="td-i-destroy" viewBox="0 0 24 24" fill="none" stroke="currentColor" stroke-width="2" stroke-linecap="round" stroke-linejoin="round"><path d="M5 7h14l-1 13H6z"></path><path d="M9 7V4h6v3M10 11v6M14 11v6"></path></symbol>
  <symbol id="td-i-refresh" viewBox="0 0 24 24" fill="none" stroke="currentColor" stroke-width="2" stroke-linecap="round" stroke-linejoin="round"><path d="M20 11a8 8 0 0 0-14-4M4 5v5h5M4 13a8 8 0 0 0 14 4M20 19v-5h-5"></path></symbol>
  <symbol id="td-i-plus" viewBox="0 0 24 24" fill="none" stroke="currentColor" stroke-width="2" stroke-linecap="round"><path d="M12 5v14M5 12h14"></path></symbol>
  <symbol id="td-i-trash" viewBox="0 0 24 24" fill="none" stroke="currentColor" stroke-width="2" stroke-linecap="round" stroke-linejoin="round"><path d="M5 7h14l-1 13H6zM9 7V4h6v3M10 11v6M14 11v6"></path></symbol>
  <symbol id="td-i-edit" viewBox="0 0 24 24" fill="none" stroke="currentColor" stroke-width="2" stroke-linecap="round" stroke-linejoin="round"><path d="M4 20h4L20 8l-4-4L4 16z"></path><path d="M14 6l4 4"></path></symbol>
  <symbol id="td-i-copy" viewBox="0 0 24 24" fill="none" stroke="currentColor" stroke-width="2" stroke-linecap="round" stroke-linejoin="round"><rect x="8" y="8" width="12" height="12" rx="2"></rect><path d="M4 16V6a2 2 0 0 1 2-2h10"></path></symbol>
  <symbol id="td-i-download" viewBox="0 0 24 24" fill="none" stroke="currentColor" stroke-width="2" stroke-linecap="round" stroke-linejoin="round"><path d="M12 4v12M7 11l5 5 5-5M5 20h14"></path></symbol>
  <symbol id="td-i-upload" viewBox="0 0 24 24" fill="none" stroke="currentColor" stroke-width="2" stroke-linecap="round" stroke-linejoin="round"><path d="M12 20V8M7 13l5-5 5 5M5 4h14"></path></symbol>
  <symbol id="td-i-search" viewBox="0 0 24 24" fill="none" stroke="currentColor" stroke-width="2" stroke-linecap="round" stroke-linejoin="round"><circle cx="11" cy="11" r="6"></circle><path d="M16 16l5 5"></path></symbol>
  <symbol id="td-i-filter" viewBox="0 0 24 24" fill="none" stroke="currentColor" stroke-width="2" stroke-linecap="round" stroke-linejoin="round"><path d="M4 5h16l-6 8v6l-4-2v-4z"></path></symbol>
  <symbol id="td-i-more" viewBox="0 0 24 24" fill="currentColor"><circle cx="6" cy="12" r="1.6"></circle><circle cx="12" cy="12" r="1.6"></circle><circle cx="18" cy="12" r="1.6"></circle></symbol>
  <symbol id="td-i-chevron-down" viewBox="0 0 24 24" fill="none" stroke="currentColor" stroke-width="2" stroke-linecap="round" stroke-linejoin="round"><path d="M6 9l6 6 6-6"></path></symbol>
  <symbol id="td-i-chevron-right" viewBox="0 0 24 24" fill="none" stroke="currentColor" stroke-width="2" stroke-linecap="round" stroke-linejoin="round"><path d="M9 6l6 6-6 6"></path></symbol>
  <symbol id="td-i-external" viewBox="0 0 24 24" fill="none" stroke="currentColor" stroke-width="2" stroke-linecap="round" stroke-linejoin="round"><path d="M14 4h6v6M20 4l-9 9M19 14v5H5V5h5"></path></symbol>

  <symbol id="td-i-server" viewBox="0 0 24 24" fill="none" stroke="currentColor" stroke-width="2" stroke-linecap="round" stroke-linejoin="round"><rect x="3" y="4" width="18" height="6" rx="1"></rect><rect x="3" y="14" width="18" height="6" rx="1"></rect><circle cx="7" cy="7" r=".7" fill="currentColor"></circle><circle cx="7" cy="17" r=".7" fill="currentColor"></circle></symbol>
  <symbol id="td-i-database" viewBox="0 0 24 24" fill="none" stroke="currentColor" stroke-width="2" stroke-linecap="round" stroke-linejoin="round"><ellipse cx="12" cy="5" rx="8" ry="2.5"></ellipse><path d="M4 5v7c0 1.4 3.6 2.5 8 2.5s8-1.1 8-2.5V5M4 12v7c0 1.4 3.6 2.5 8 2.5s8-1.1 8-2.5v-7"></path></symbol>
  <symbol id="td-i-network" viewBox="0 0 24 24" fill="none" stroke="currentColor" stroke-width="2" stroke-linecap="round" stroke-linejoin="round"><circle cx="12" cy="12" r="9"></circle><path d="M3 12h18M12 3a14 14 0 0 1 0 18M12 3a14 14 0 0 0 0 18"></path></symbol>
  <symbol id="td-i-storage" viewBox="0 0 24 24" fill="none" stroke="currentColor" stroke-width="2" stroke-linecap="round" stroke-linejoin="round"><path d="M3 7l9-3 9 3-9 3z"></path><path d="M3 12l9 3 9-3M3 17l9 3 9-3"></path></symbol>
  <symbol id="td-i-function" viewBox="0 0 24 24" fill="none" stroke="currentColor" stroke-width="2" stroke-linecap="round" stroke-linejoin="round"><path d="M9 4c-2 0-3 1-3 3v2H4M9 4c2 0 3 1 3 3v10c0 2 1 3 3 3M15 11h-6"></path></symbol>
  <symbol id="td-i-container" viewBox="0 0 24 24" fill="none" stroke="currentColor" stroke-width="2" stroke-linecap="round" stroke-linejoin="round"><path d="M3 9l9-5 9 5v6l-9 5-9-5z"></path><path d="M3 9l9 5 9-5M12 14v6"></path></symbol>
  <symbol id="td-i-vpc" viewBox="0 0 24 24" fill="none" stroke="currentColor" stroke-width="2" stroke-linecap="round" stroke-linejoin="round"><rect x="3" y="5" width="18" height="14" rx="2" stroke-dasharray="3 2"></rect><rect x="7" y="9" width="4" height="3" rx=".5"></rect><rect x="13" y="9" width="4" height="3" rx=".5"></rect><rect x="10" y="14" width="4" height="3" rx=".5"></rect></symbol>
  <symbol id="td-i-dns" viewBox="0 0 24 24" fill="none" stroke="currentColor" stroke-width="2" stroke-linecap="round" stroke-linejoin="round"><circle cx="12" cy="12" r="9"></circle><path d="M3 9h18M3 15h18M9 3a18 18 0 0 0 0 18M15 3a18 18 0 0 1 0 18"></path></symbol>
  <symbol id="td-i-queue" viewBox="0 0 24 24" fill="none" stroke="currentColor" stroke-width="2" stroke-linecap="round" stroke-linejoin="round"><rect x="3" y="9" width="4" height="6" rx="1"></rect><rect x="10" y="9" width="4" height="6" rx="1"></rect><rect x="17" y="9" width="4" height="6" rx="1"></rect></symbol>
  <symbol id="td-i-secret" viewBox="0 0 24 24" fill="none" stroke="currentColor" stroke-width="2" stroke-linecap="round" stroke-linejoin="round"><circle cx="9" cy="13" r="4"></circle><path d="M13 13h8l-2 2 2 2"></path></symbol>
  <symbol id="td-i-balancer" viewBox="0 0 24 24" fill="none" stroke="currentColor" stroke-width="2" stroke-linecap="round" stroke-linejoin="round"><circle cx="12" cy="5" r="2"></circle><circle cx="5" cy="19" r="2"></circle><circle cx="12" cy="19" r="2"></circle><circle cx="19" cy="19" r="2"></circle><path d="M12 7v4M12 11l-7 6M12 11v6M12 11l7 6"></path></symbol>

  <symbol id="td-i-aws" viewBox="0 0 24 24" fill="none" stroke="currentColor" stroke-width="2" stroke-linecap="round" stroke-linejoin="round"><path d="M3 16c4 3 14 3 18 0M5 18c.5.7 1.2 1 2 1M22 17l-1 2"></path><circle cx="8" cy="10" r="3"></circle><circle cx="16" cy="10" r="3"></circle></symbol>
  <symbol id="td-i-gcp" viewBox="0 0 24 24" fill="none" stroke="currentColor" stroke-width="2" stroke-linecap="round" stroke-linejoin="round"><path d="M7 17a4 4 0 0 1 1-7.9 6 6 0 0 1 11 2A3.5 3.5 0 0 1 18 18z"></path><path d="M10 13l2 2 3-4"></path></symbol>
  <symbol id="td-i-azure" viewBox="0 0 24 24" fill="none" stroke="currentColor" stroke-width="2" stroke-linecap="round" stroke-linejoin="round"><path d="M11 4l-7 16h7l1-3 4 3h5L13 4z"></path></symbol>
  <symbol id="td-i-k8s" viewBox="0 0 24 24" fill="none" stroke="currentColor" stroke-width="2" stroke-linecap="round" stroke-linejoin="round"><path d="M12 3l8 4v10l-8 4-8-4V7z"></path><path d="M12 8v8M8 10l8 4M8 14l8-4"></path></symbol>
  <symbol id="td-i-terraform" viewBox="0 0 24 24" fill="none" stroke="currentColor" stroke-width="2" stroke-linecap="round" stroke-linejoin="round"><path d="M5 4l6 3v7L5 11zM12 8l6 3v7l-6-3zM12 14v7l-6-3v-7"></path></symbol>
  <symbol id="td-i-github" viewBox="0 0 24 24" fill="none" stroke="currentColor" stroke-width="2" stroke-linecap="round" stroke-linejoin="round"><path d="M9 19c-4 1.5-4-2.5-6-3M15 21v-3.5a3 3 0 0 0-.8-2.2c2.7-.3 5.5-1.3 5.5-6a4.6 4.6 0 0 0-1.3-3.2 4.3 4.3 0 0 0-.1-3.2s-1.1-.3-3.5 1.3a12 12 0 0 0-6.4 0C5.6 1.6 4.5 1.9 4.5 1.9a4.3 4.3 0 0 0-.1 3.2A4.6 4.6 0 0 0 3 8.3c0 4.6 2.8 5.7 5.5 6a3 3 0 0 0-.8 2.2V21"></path></symbol>
  <symbol id="td-i-gitlab" viewBox="0 0 24 24" fill="none" stroke="currentColor" stroke-width="2" stroke-linecap="round" stroke-linejoin="round"><path d="M12 21L4 11l2-7 2 7h8l2-7 2 7z"></path></symbol>

  <symbol id="td-i-home" viewBox="0 0 24 24" fill="none" stroke="currentColor" stroke-width="2" stroke-linecap="round" stroke-linejoin="round"><path d="M4 11l8-7 8 7v9h-5v-6h-6v6H4z"></path></symbol>
  <symbol id="td-i-workspace" viewBox="0 0 24 24" fill="none" stroke="currentColor" stroke-width="2" stroke-linecap="round" stroke-linejoin="round"><rect x="3" y="5" width="18" height="14" rx="2"></rect><path d="M3 9h18M8 5v14"></path></symbol>
  <symbol id="td-i-runs" viewBox="0 0 24 24" fill="none" stroke="currentColor" stroke-width="2" stroke-linecap="round" stroke-linejoin="round"><path d="M4 6h16M4 12h10M4 18h16"></path><circle cx="18" cy="12" r="2" fill="currentColor"></circle></symbol>
  <symbol id="td-i-modules" viewBox="0 0 24 24" fill="none" stroke="currentColor" stroke-width="2" stroke-linecap="round" stroke-linejoin="round"><rect x="3" y="3" width="8" height="8" rx="1"></rect><rect x="13" y="3" width="8" height="8" rx="1"></rect><rect x="3" y="13" width="8" height="8" rx="1"></rect><rect x="13" y="13" width="8" height="8" rx="1"></rect></symbol>
  <symbol id="td-i-policies" viewBox="0 0 24 24" fill="none" stroke="currentColor" stroke-width="2" stroke-linecap="round" stroke-linejoin="round"><path d="M12 3l8 3v6c0 4.5-3.5 8-8 9-4.5-1-8-4.5-8-9V6z"></path><path d="M9 12l2 2 4-4"></path></symbol>
  <symbol id="td-i-settings" viewBox="0 0 24 24" fill="none" stroke="currentColor" stroke-width="2" stroke-linecap="round" stroke-linejoin="round"><circle cx="12" cy="12" r="3"></circle><path d="M19.4 15a1.7 1.7 0 0 0 .3 1.8 2 2 0 1 1-2.8 2.8 1.7 1.7 0 0 0-1.8-.3 1.7 1.7 0 0 0-1 1.5V21a2 2 0 0 1-4 0 1.7 1.7 0 0 0-1-1.5 1.7 1.7 0 0 0-1.8.3 2 2 0 1 1-2.8-2.8 1.7 1.7 0 0 0 .3-1.8 1.7 1.7 0 0 0-1.5-1H3a2 2 0 0 1 0-4 1.7 1.7 0 0 0 1.5-1 1.7 1.7 0 0 0-.3-1.8 2 2 0 1 1 2.8-2.8 1.7 1.7 0 0 0 1.8.3 1.7 1.7 0 0 0 1-1.5V3a2 2 0 0 1 4 0 1.7 1.7 0 0 0 1 1.5 1.7 1.7 0 0 0 1.8-.3 2 2 0 1 1 2.8 2.8 1.7 1.7 0 0 0-.3 1.8 1.7 1.7 0 0 0 1.5 1H21a2 2 0 0 1 0 4 1.7 1.7 0 0 0-1.5 1z"></path></symbol>
  <symbol id="td-i-users" viewBox="0 0 24 24" fill="none" stroke="currentColor" stroke-width="2" stroke-linecap="round" stroke-linejoin="round"><circle cx="9" cy="8" r="3.5"></circle><path d="M3 20c0-3.3 2.7-6 6-6s6 2.7 6 6"></path><circle cx="17" cy="9" r="2.5"></circle><path d="M15 14c2.5 0 6 1.7 6 6"></path></symbol>
  <symbol id="td-i-logs" viewBox="0 0 24 24" fill="none" stroke="currentColor" stroke-width="2" stroke-linecap="round" stroke-linejoin="round"><path d="M5 4h14v16H5z"></path><path d="M8 8h8M8 12h8M8 16h5"></path></symbol>
  <symbol id="td-i-command" viewBox="0 0 24 24" fill="none" stroke="currentColor" stroke-width="2" stroke-linecap="round" stroke-linejoin="round"><path d="M9 9V6a3 3 0 1 0-3 3h12a3 3 0 1 0-3-3v12a3 3 0 1 0 3-3H6a3 3 0 1 0 3 3z"></path></symbol>

  <symbol id="td-i-diff-add" viewBox="0 0 24 24" fill="none" stroke="currentColor" stroke-width="2" stroke-linecap="round"><circle cx="12" cy="12" r="9"></circle><path d="M12 8v8M8 12h8"></path></symbol>
  <symbol id="td-i-diff-change" viewBox="0 0 24 24" fill="none" stroke="currentColor" stroke-width="2" stroke-linecap="round" stroke-linejoin="round"><circle cx="12" cy="12" r="9"></circle><path d="M8 12h8M14 8l-3 4 3 4"></path></symbol>
  <symbol id="td-i-diff-destroy" viewBox="0 0 24 24" fill="none" stroke="currentColor" stroke-width="2" stroke-linecap="round"><circle cx="12" cy="12" r="9"></circle><path d="M8 12h8"></path></symbol>

</svg>