<svg xmlns="http://www.w3.org/2000/svg" viewBox="0 0 32 32">
  <defs>
    <linearGradient id="fv-w" x1="0" y1="0" x2="1" y2="1">
      <stop offset="0%" stop-color="#0e3636"></stop>
      <stop offset="60%" stop-color="#1f6f6c"></stop>
      <stop offset="100%" stop-color="#5eb85a"></stop>
    </linearGradient>
  </defs>
  
  
  <path d="M16 17 C12 13 8 9 4 8 C5 11 6 13 7 15 C5 14 3 14 2 15 C4 16 6 17 8 18 C7 17 6 18 5 19 C8 19 12 19 16 18 Z" fill="#1f6f6c"></path>
  
  <path d="M16 17 C20 12 24 9 29 7 C28 10 27 13 26 16 C28 15 30 16 30 17 C28 18 26 18 24 19 C25 18 26 19 27 20 C23 19 19 19 16 18 Z" fill="url(#fv-w)"></path>
  
  <path d="M11 20 C13 18 16 17 19 17 C22 17 24 16 26 14 L25 17 C24 19 22 20 19 21 C16 22 13 22 11 20 Z" fill="url(#fv-w)"></path>
  
  <path d="M26 15 L30 15.5 L29 17.5 L25 17 Z" fill="#7ed078"></path>
  
  <circle cx="24.5" cy="15.4" r="0.6" fill="#0e1f1d"></circle>
</svg>